<svg id="visual" viewBox="0 0 900 600" width="900" height="600" xmlns="http://www.w3.org/2000/svg" xmlns:xlink="http://www.w3.org/1999/xlink" version="1.1"><path d="M0 79L64 97L129 91L193 97L257 91L321 85L386 97L450 73L514 79L579 67L643 73L707 97L771 85L836 73L900 97L900 0L836 0L771 0L707 0L643 0L579 0L514 0L450 0L386 0L321 0L257 0L193 0L129 0L64 0L0 0Z" fill="#00cc8e"></path><path d="M0 181L64 181L129 181L193 211L257 181L321 205L386 181L450 181L514 199L579 157L643 193L707 199L771 193L836 187L900 211L900 95L836 71L771 83L707 95L643 71L579 65L514 77L450 71L386 95L321 83L257 89L193 95L129 89L64 95L0 77Z" fill="#00b98a"></path><path d="M0 331L64 343L129 349L193 343L257 373L321 373L386 373L450 331L514 391L579 373L643 337L707 385L771 373L836 361L900 373L900 209L836 185L771 191L707 197L643 191L579 155L514 197L450 179L386 179L321 203L257 179L193 209L129 179L64 179L0 179Z" fill="#00a784"></path><path d="M0 529L64 541L129 541L193 523L257 541L321 517L386 523L450 529L514 535L579 529L643 523L707 517L771 529L836 523L900 523L900 371L836 359L771 371L707 383L643 335L579 371L514 389L450 329L386 371L321 371L257 371L193 341L129 347L64 341L0 329Z" fill="#00957c"></path><path d="M0 601L64 601L129 601L193 601L257 601L321 601L386 601L450 601L514 601L579 601L643 601L707 601L771 601L836 601L900 601L900 521L836 521L771 527L707 515L643 521L579 527L514 533L450 527L386 521L321 515L257 539L193 521L129 539L64 539L0 527Z" fill="#038373"></path></svg>